<svg xmlns="http://www.w3.org/2000/svg" width="584.372" height="65.168" viewBox="0 0 584.372 65.168">
  <g id="Group_877" data-name="Group 877" transform="translate(-218 -90)">
    <g id="Group_111" data-name="Group 111" transform="translate(-1538.128 -1979.332)">
      <g id="Group_90" data-name="Group 90" transform="translate(-1048.416 1791.547)">
        <g id="Group_33" data-name="Group 33">
          <path id="Path_73" data-name="Path 73" d="M2880.437,279.4h4.128l4.541,13.968-4.954,1.858-.619-.895c-1.583-2.2-3.509-4.816-5.78-6.33a15.027,15.027,0,0,0-8.463-2.821c-3.1,0-7.569,1.17-7.569,4.954,0,3.372,5.161,4.128,7.569,4.748l2.546.55,4.61,1.238c3.44.964,7.637,1.927,10.665,3.854,3.3,2.133,4.954,6.123,4.954,9.977,0,10.8-9.427,16.926-19.4,16.926-3.99,0-9.15-1.239-12.316-3.785l-.963,3.165h-4.128l-5.711-17.338,5.229-1.721c3.578,6.95,9.564,12.729,17.821,12.729,3.784,0,8.807-1.513,8.807-6.055,0-3.784-4.541-4.472-7.363-5.16l-7.775-1.927c-3.371-.825-7.775-1.857-10.595-3.853a12.1,12.1,0,0,1-4.748-10.045c0-9.633,8.669-15.206,17.545-15.206a20.769,20.769,0,0,1,11.147,3.371Z" fill="#fff"/>
          <path id="Path_74" data-name="Path 74" d="M2928.944,290.612a8.088,8.088,0,0,0,.688-2.821c0-2.684-3.44-2.477-5.367-2.752V279.4h19.473v5.643h-.344c-4.542,0-6.262,3.646-7.707,7.5l-12.8,33.715h-9.357l-13.28-34.884c-1.857-4.886-2.477-6.193-8.119-6.33V279.4h25.39v5.643c-2.2.137-5.986.068-5.986,2.545a10.949,10.949,0,0,0,.825,2.821l8.532,23.394Z" fill="#fff"/>
          <path id="Path_75" data-name="Path 75" d="M2975.388,279.4h4.128l4.541,13.968-4.954,1.858-.619-.895c-1.583-2.2-3.509-4.816-5.78-6.33a15.027,15.027,0,0,0-8.463-2.821c-3.1,0-7.568,1.17-7.568,4.954,0,3.372,5.16,4.128,7.568,4.748l2.546.55,4.61,1.238c3.44.964,7.637,1.927,10.665,3.854,3.3,2.133,4.954,6.123,4.954,9.977,0,10.8-9.427,16.926-19.4,16.926-3.991,0-9.152-1.239-12.316-3.785l-.964,3.165h-4.128l-5.711-17.338,5.229-1.721c3.578,6.95,9.564,12.729,17.821,12.729,3.784,0,8.807-1.513,8.807-6.055,0-3.784-4.541-4.472-7.362-5.16l-7.775-1.927c-3.372-.825-7.775-1.857-10.6-3.853a12.1,12.1,0,0,1-4.748-10.045c0-9.633,8.67-15.206,17.546-15.206a20.769,20.769,0,0,1,11.146,3.371Z" fill="#fff"/>
        </g>
        <g id="Group_34" data-name="Group 34">
          <rect id="Rectangle_34" data-name="Rectangle 34" width="4.229" height="50.448" transform="translate(2804.544 277.785)" fill="#c00"/>
          <rect id="Rectangle_35" data-name="Rectangle 35" width="8.218" height="50.448" transform="translate(2811.11 277.785)" fill="#c00"/>
          <rect id="Rectangle_36" data-name="Rectangle 36" width="15.999" height="50.448" transform="translate(2822.101 277.785)" fill="#c00"/>
        </g>
        <g id="Group_35" data-name="Group 35">
          <path id="Path_76" data-name="Path 76" d="M3066.993,278.467v48.984h-4.969V288.263l-19.243,32.96h-2.45l-19.244-32.75v38.978h-4.968V278.467h4.269l21.273,36.318,21.063-36.318Z" fill="#fff"/>
          <path id="Path_77" data-name="Path 77" d="M3113.669,314.365h-27.291l-5.878,13.086h-5.388l22.393-48.984h5.108l22.393,48.984h-5.458Zm-1.889-4.2-11.756-26.312-11.757,26.312Z" fill="#fff"/>
          <path id="Path_78" data-name="Path 78" d="M3171.333,278.467l-21.693,48.984h-5.108l-21.694-48.984h5.6l18.754,42.546,18.894-42.546Z" fill="#fff"/>
          <path id="Path_79" data-name="Path 79" d="M3213.041,322.972v4.479H3178.4V278.467h33.589v4.478H3183.58V300.37h25.333v4.408H3183.58v18.194Z" fill="#fff"/>
          <path id="Path_80" data-name="Path 80" d="M3258.668,327.451l-11.2-15.745a35.112,35.112,0,0,1-3.919.21H3230.4v15.535h-5.178V278.467h18.334c12.456,0,20.014,6.3,20.014,16.794,0,7.7-4.059,13.086-11.2,15.4l11.965,16.795Zm-.28-32.19c0-7.837-5.178-12.316-14.974-12.316H3230.4v24.562h13.017C3253.21,307.507,3258.388,302.959,3258.388,295.261Z" fill="#fff"/>
          <path id="Path_81" data-name="Path 81" d="M3275.815,278.467h5.178v48.984h-5.178Z" fill="#fff"/>
          <path id="Path_82" data-name="Path 82" d="M3292.61,302.959c0-14.346,10.916-24.913,25.681-24.913,7.138,0,13.576,2.38,17.914,7.139l-3.288,3.288a19.418,19.418,0,0,0-14.486-5.808c-11.826,0-20.713,8.677-20.713,20.294s8.887,20.293,20.713,20.293a19.216,19.216,0,0,0,14.486-5.878l3.288,3.289c-4.338,4.758-10.776,7.208-17.984,7.208C3303.526,327.871,3292.61,317.3,3292.61,302.959Z" fill="#fff"/>
          <path id="Path_83" data-name="Path 83" d="M3362.449,304.428l-10.007,10.146v12.877h-5.178V278.467h5.178v29.6l28.761-29.6h5.948l-21.2,22.182,22.672,26.8h-6.157Z" fill="#fff"/>
        </g>
      </g>
      <line id="Line_1" data-name="Line 1" x2="584" transform="translate(1756.5 2132.5)" fill="none" stroke="#c00" stroke-width="4"/>
    </g>
  </g>
</svg>
